<?xml version="1.0" encoding="utf-8"?>
<!-- Generator: Adobe Illustrator 27.9.0, SVG Export Plug-In . SVG Version: 6.00 Build 0)  -->
<svg version="1.1" id="Layer_1" xmlns="http://www.w3.org/2000/svg" xmlns:xlink="http://www.w3.org/1999/xlink" x="0px" y="0px"
	 viewBox="0 0 100 100" style="enable-background:new 0 0 100 100;" xml:space="preserve">
<path d="M74.78,47.73l3.71-4.51c0,0,0,0,0-0.01l17.61-21.39c0.99-1.2,0.99-3.01,0.02-4.22c-0.53-0.66-1.29-1.05-2.1-1.09
	c-0.81-0.04-1.58,0.27-2.16,0.88L32.8,78.29c-1.77,1.62-2.71,1.98-4.97,1.93c-0.01,0-0.02,0-0.03,0c-0.85,0.01-1.68-0.13-2.5-0.41
	c0,0,0,0,0,0c0,0,0,0,0,0L8.58,74.15c-1.45-0.5-2.97-0.28-4.07,0.58c-0.97,0.77-1.47,1.93-1.35,3.19l0.62,6.84
	c0.16,1.71,1.45,3.27,3.21,3.87l19.32,6.62c1.32,0.45,2.66,0.67,3.96,0.67c2.81,0,5.44-1.03,7.25-2.96
	c0.04-0.03,0.07-0.07,0.11-0.11l37.13-45.1C74.77,47.75,74.77,47.74,74.78,47.73z M73.61,39.44l2.55,3.08l-2.27,2.76l-2.74-3.31
	L73.61,39.44z M93.48,18.95c0.13-0.14,0.29-0.21,0.45-0.2c0.17,0.01,0.33,0.1,0.46,0.26c0.31,0.38,0.31,1-0.01,1.38L77.62,40.75
	l-2.43-2.94L93.48,18.95z M17.46,89.85L20,80.39l3.58,1.21l-2.54,9.47L17.46,89.85z M6.02,84.55L5.4,77.71
	c-0.06-0.63,0.24-1.01,0.5-1.22c0.49-0.39,1.22-0.47,1.96-0.22l10.01,3.39l-2.53,9.45l-7.61-2.61C6.8,86.19,6.1,85.39,6.02,84.55z
	 M27.04,93.13l-3.88-1.33l2.56-9.55c0.68,0.15,1.38,0.22,2.07,0.21c0.12,0,0.25,0,0.37,0c2.59,0,4.09-0.63,6.18-2.55
	c0.01-0.01,0.01-0.02,0.02-0.02c0.01-0.01,0.02-0.01,0.03-0.02l35.19-36.29l2.86,3.45l-36.5,44.34c0,0,0,0,0,0
	C33.9,93.6,30.41,94.29,27.04,93.13z M95.49,74.73c-1.09-0.86-2.61-1.08-4.06-0.58l-16.71,5.66c0,0,0,0,0,0c0,0,0,0,0,0
	c-0.82,0.28-1.65,0.42-2.5,0.41c-0.01,0-0.02,0-0.03,0c-2.27,0.05-3.2-0.31-4.97-1.93l-7.27-7.5c-0.43-0.45-1.14-0.46-1.59-0.02
	c-0.44,0.43-0.46,1.14-0.02,1.59l7.29,7.52c0.01,0.01,0.02,0.01,0.03,0.02c0.01,0.01,0.01,0.02,0.02,0.02
	c2.09,1.92,3.58,2.55,6.18,2.55c0.12,0,0.24,0,0.37,0c0.7,0.01,1.39-0.07,2.07-0.21l2.56,9.55l-3.88,1.33
	c-3.37,1.15-6.86,0.47-8.89-1.75c0,0,0,0,0,0L53.63,78.7c-0.39-0.48-1.1-0.55-1.58-0.15c-0.48,0.39-0.55,1.1-0.15,1.58l10.48,12.73
	c0.03,0.04,0.07,0.08,0.11,0.11c1.81,1.93,4.43,2.96,7.25,2.96c1.3,0,2.64-0.22,3.96-0.67L93,88.63c1.76-0.6,3.06-2.16,3.22-3.88
	l0.62-6.84C96.95,76.66,96.46,75.49,95.49,74.73z M76.43,81.6L80,80.39l2.53,9.46l-3.57,1.23L76.43,81.6z M94.6,77.71l-0.62,6.84
	c-0.08,0.84-0.78,1.64-1.71,1.96l-7.61,2.61l-2.53-9.45l10.01-3.39c0.73-0.25,1.46-0.17,1.95,0.22
	C94.36,76.7,94.66,77.08,94.6,77.71z M21.5,43.21C21.51,43.22,21.51,43.22,21.5,43.21l3.71,4.51c0.01,0.01,0.01,0.02,0.02,0.03
	l14.39,17.48c0.22,0.27,0.54,0.41,0.87,0.41c0.25,0,0.5-0.08,0.71-0.26c0.48-0.39,0.55-1.1,0.15-1.58L27.56,47.04l2.86-3.45
	l15.65,16.14c0.43,0.44,1.14,0.46,1.59,0.02c0.44-0.43,0.46-1.14,0.02-1.59L8.13,17.39c-0.59-0.6-1.35-0.92-2.16-0.88
	c-0.81,0.04-1.57,0.43-2.1,1.09c-0.97,1.21-0.96,3.02,0.02,4.22L21.5,43.21z M26.11,45.28l-2.27-2.76l2.55-3.08l2.46,2.53
	L26.11,45.28z M5.62,19.01c0.13-0.16,0.29-0.25,0.46-0.26c0.16-0.01,0.32,0.06,0.45,0.2l18.3,18.86l-2.43,2.94L5.62,20.39
	C5.31,20.02,5.31,19.39,5.62,19.01z M54.81,24.02c0.03,0.04,0.06,0.08,0.09,0.12c0.33,0.42,0.81,0.63,1.49,0.63
	c0.85,0,2.02-0.33,3.57-0.99c2.18-0.93,4.9-2.42,7.64-4.2c2.75-1.78,5.21-3.66,6.95-5.27c2.32-2.16,3.01-3.54,2.31-4.61
	c0,0,0,0,0-0.01l-3.17-4.88c-0.69-1.07-2.23-1-5.15,0.24c-2.18,0.93-4.9,2.42-7.64,4.2c-2.75,1.78-5.21,3.66-6.95,5.27
	c-2.32,2.16-3.01,3.54-2.31,4.61L54.81,24.02z M66.38,17.7c-4.25,2.76-7.39,4.17-8.99,4.65c1.08-1.26,3.65-3.56,7.9-6.32
	s7.39-4.17,8.99-4.65C73.2,12.64,70.64,14.94,66.38,17.7z M62.12,11.14c5.27-3.42,8.83-4.77,9.86-4.83l1.86,2.87
	c-0.61,0.16-1.32,0.42-2.13,0.76c-2.18,0.93-4.9,2.42-7.64,4.2c-2.75,1.78-5.21,3.66-6.95,5.27c-0.65,0.61-1.17,1.15-1.57,1.64
	l-1.86-2.87C54.17,17.27,56.85,14.57,62.12,11.14z M37.89,25.55c-0.34-0.52-0.19-1.21,0.33-1.55l8.1-5.26
	c0.52-0.34,1.21-0.19,1.55,0.33c0.34,0.52,0.19,1.21-0.33,1.55l-8.1,5.26c-0.19,0.12-0.4,0.18-0.61,0.18
	C38.47,26.06,38.11,25.88,37.89,25.55z M53.34,27.49c0.34,0.52,0.19,1.21-0.33,1.55l-8.1,5.26c-0.19,0.12-0.4,0.18-0.61,0.18
	c-0.37,0-0.73-0.18-0.94-0.51c-0.34-0.52-0.19-1.21,0.33-1.55l8.1-5.26C52.31,26.83,53.01,26.97,53.34,27.49z M34.43,34.05
	c-0.34-0.52-0.19-1.21,0.33-1.55l12.47-8.1c0.52-0.34,1.21-0.19,1.55,0.33c0.34,0.52,0.19,1.21-0.33,1.55l-12.47,8.1
	c-0.19,0.12-0.4,0.18-0.61,0.18C35.01,34.56,34.65,34.38,34.43,34.05z"/>
</svg>
