<?xml version="1.0" encoding="utf-8"?>
<!-- Generator: Adobe Illustrator 28.1.0, SVG Export Plug-In . SVG Version: 6.00 Build 0)  -->
<svg version="1.1" id="Layer_1" xmlns="http://www.w3.org/2000/svg" xmlns:xlink="http://www.w3.org/1999/xlink" x="0px" y="0px"
	 viewBox="0 0 100 100" style="enable-background:new 0 0 100 100;" xml:space="preserve">
<path d="M70.9,55.92c0.3-0.51,0.59-1.03,0.84-1.56c0.24-0.5,0.03-1.1-0.47-1.34c-0.5-0.24-1.1-0.03-1.34,0.47
	c-0.23,0.48-0.49,0.95-0.76,1.41c-2.46,4.14-6.37,7.12-11.01,8.4c-0.02,0.01-0.03,0.01-0.05,0.02c-0.02,0.01-0.03,0.01-0.05,0.01
	c-0.01,0.01-0.03,0.01-0.04,0.02c-0.03,0.01-0.06,0.03-0.09,0.05c-0.03,0.02-0.05,0.03-0.08,0.05c-0.03,0.02-0.05,0.04-0.08,0.06
	c-0.02,0.02-0.05,0.04-0.07,0.07c-0.02,0.02-0.04,0.05-0.06,0.07c-0.02,0.03-0.04,0.05-0.06,0.08c-0.02,0.03-0.03,0.05-0.05,0.08
	c-0.01,0.03-0.03,0.06-0.04,0.09c-0.01,0.03-0.02,0.06-0.03,0.09c-0.01,0.03-0.02,0.06-0.02,0.09c-0.01,0.03-0.01,0.06-0.01,0.1
	c0,0.03,0,0.07,0,0.1c0,0.03,0,0.06,0.01,0.09c0,0.03,0.01,0.07,0.02,0.1c0,0.02,0,0.03,0.01,0.05c0.01,0.02,0.02,0.04,0.02,0.06
	c0,0.01,0.01,0.03,0.01,0.04c2.56,6.44,2,13.54-1.54,19.49c-3.02,5.08-7.84,8.68-13.56,10.13c-5.73,1.46-11.68,0.59-16.76-2.43
	c-5.08-3.02-8.68-7.84-10.13-13.56c-1.46-5.73-0.59-11.68,2.43-16.76c3.53-5.94,9.5-9.83,16.37-10.66c0.04,0,0.08-0.01,0.12-0.02
	c0.02,0,0.03-0.01,0.05-0.02c0.03-0.01,0.06-0.02,0.09-0.03c0.03-0.01,0.06-0.03,0.1-0.04c0.03-0.01,0.05-0.03,0.08-0.05
	c0.03-0.02,0.06-0.04,0.08-0.06c0.02-0.02,0.05-0.04,0.07-0.06c0.02-0.02,0.05-0.05,0.07-0.07c0.02-0.02,0.04-0.05,0.06-0.07
	c0.02-0.03,0.04-0.05,0.05-0.08c0.02-0.03,0.03-0.06,0.04-0.09c0.01-0.03,0.02-0.06,0.03-0.09c0.01-0.03,0.02-0.06,0.03-0.1
	c0.01-0.03,0.01-0.06,0.02-0.09c0-0.03,0.01-0.07,0.01-0.1c0-0.03,0-0.06,0-0.1c0-0.02,0-0.03,0-0.05c0-0.02-0.01-0.04-0.01-0.06
	c0-0.02,0-0.03-0.01-0.05c-1.09-4.69-0.34-9.55,2.12-13.69c4.03-6.77,11.92-10.23,19.56-8.71L43.25,50.12
	c-0.28,0.48-0.13,1.09,0.35,1.37c0.48,0.28,1.09,0.13,1.37-0.35l18.41-30.96l7.18,4.27l-21.2,35.65c-0.72-1.26-1.75-2.32-3.03-3.08
	c-4.04-2.4-9.28-1.07-11.68,2.97c-1.16,1.96-1.5,4.25-0.93,6.45c0.56,2.21,1.95,4.06,3.9,5.22c1.34,0.79,2.83,1.2,4.34,1.2
	c0.7,0,1.41-0.09,2.11-0.27c2.21-0.56,4.06-1.95,5.22-3.9c1.12-1.89,1.47-4.09,0.99-6.23l17.21-28.94c2.79,3.34,4.31,7.53,4.3,11.94
	c0,0.55,0.45,1,1,1.01c0,0,0,0,0,0c0.55,0,1-0.45,1-1c0.01-5.12-1.83-9.98-5.22-13.76l6.53-10.98l3.01,1.79
	c0.16,0.1,0.34,0.14,0.51,0.14c0.34,0,0.68-0.18,0.86-0.49c0.28-0.48,0.13-1.09-0.35-1.37l-3.01-1.79l1.79-3.01l3.01,1.79
	c0.16,0.1,0.34,0.14,0.51,0.14c0.34,0,0.68-0.18,0.86-0.49c0.28-0.48,0.13-1.09-0.35-1.37l-3.01-1.79l1.35-2.27
	c0.74-1.25,0.95-2.71,0.59-4.11c-0.36-1.4-1.24-2.59-2.49-3.33l-1.3-0.78c-1.25-0.74-2.71-0.95-4.11-0.59
	c-1.4,0.36-2.59,1.24-3.33,2.49l-1.35,2.27L65.3,6.18c-0.48-0.28-1.09-0.13-1.37,0.35c-0.28,0.48-0.13,1.09,0.35,1.37l3.01,1.79
	l-1.79,3.01l-3.01-1.79c-0.48-0.28-1.09-0.13-1.37,0.35c-0.28,0.48-0.13,1.09,0.35,1.37l3.01,1.79l-6.53,10.98
	c-8.67-2.04-17.78,1.79-22.36,9.5c-2.54,4.27-3.44,9.24-2.57,14.1c-7.05,1.16-13.13,5.3-16.8,11.47
	c-6.8,11.43-3.03,26.27,8.41,33.07c3.78,2.25,8,3.4,12.29,3.4c1.99,0,4-0.25,5.99-0.75c6.25-1.59,11.5-5.51,14.79-11.05
	c3.67-6.17,4.4-13.49,2.05-20.24C64.42,63.35,68.36,60.19,70.9,55.92z M47.57,67.69c-0.89,1.5-2.31,2.56-4,2.99
	c-1.69,0.43-3.44,0.18-4.94-0.71c-1.5-0.89-2.56-2.31-2.98-4c-0.43-1.69-0.18-3.44,0.71-4.94c0.89-1.5,2.31-2.56,4-2.99
	c0.54-0.14,1.08-0.2,1.62-0.2c1.16,0,2.3,0.31,3.32,0.92c1.5,0.89,2.56,2.31,2.98,4C48.72,64.45,48.46,66.2,47.57,67.69z
	 M71.38,6.73c0.47-0.79,1.21-1.34,2.1-1.57c0.89-0.23,1.81-0.09,2.59,0.38l1.3,0.78c0.79,0.47,1.34,1.21,1.57,2.1
	s0.09,1.81-0.38,2.59l-1.35,2.27l-7.19-4.27L71.38,6.73z M69.01,10.72l7.19,4.27L74.4,18l-7.18-4.27L69.01,10.72z M73.38,19.73
	l-1.79,3.01l-7.18-4.27l1.79-3.01L73.38,19.73z M39.32,79.96c-0.17,0-0.35-0.05-0.51-0.14l-8.91-5.3c-0.48-0.28-0.63-0.9-0.35-1.37
	c0.28-0.48,0.9-0.63,1.37-0.35l8.91,5.3c0.48,0.28,0.63,0.9,0.35,1.37C40,79.79,39.67,79.96,39.32,79.96z M39.44,86.3
	c-0.19,0.32-0.52,0.49-0.86,0.49c-0.17,0-0.35-0.05-0.51-0.14l-13.8-8.21c-0.48-0.28-0.63-0.9-0.35-1.37
	c0.28-0.48,0.9-0.63,1.37-0.35l13.8,8.21C39.57,85.2,39.72,85.82,39.44,86.3z M11.28,26.02l8.75-3.69v8.23
	c-0.1-0.04-0.21-0.07-0.32-0.09c-1.61-0.37-3.23,0.63-3.6,2.25c-0.37,1.61,0.63,3.23,2.25,3.6c0.23,0.05,0.45,0.08,0.68,0.08
	c1.37,0,2.6-0.94,2.92-2.32c0.05-0.22,0.07-0.44,0.08-0.66c0-0.01,0-0.01,0-0.02V20.83c0-0.07-0.01-0.13-0.02-0.2
	c-0.03-0.13-0.08-0.26-0.15-0.37c-0.02-0.03-0.04-0.05-0.06-0.07c-0.02-0.03-0.04-0.05-0.07-0.08c-0.02-0.02-0.05-0.04-0.08-0.06
	c-0.02-0.02-0.05-0.04-0.07-0.06c-0.03-0.02-0.05-0.03-0.08-0.04c-0.03-0.02-0.06-0.03-0.09-0.05c-0.03-0.01-0.06-0.02-0.1-0.03
	c-0.03-0.01-0.06-0.02-0.09-0.03c-0.13-0.03-0.26-0.03-0.4,0c-0.07,0.01-0.13,0.03-0.19,0.06L9.89,24.43
	c-0.06,0.03-0.12,0.06-0.18,0.1c-0.03,0.02-0.05,0.04-0.07,0.06c-0.03,0.02-0.05,0.04-0.08,0.07c-0.02,0.02-0.04,0.05-0.06,0.08
	c-0.02,0.02-0.04,0.05-0.06,0.07c-0.02,0.03-0.03,0.05-0.04,0.08c-0.02,0.03-0.03,0.06-0.05,0.09c-0.01,0.03-0.02,0.06-0.03,0.09
	c-0.01,0.03-0.02,0.06-0.03,0.09c-0.01,0.07-0.02,0.13-0.02,0.2v9.74c-0.1-0.04-0.21-0.07-0.32-0.09c-1.61-0.37-3.23,0.63-3.6,2.25
	c-0.37,1.61,0.63,3.23,2.25,3.6c0.23,0.05,0.45,0.08,0.68,0.08c1.37,0,2.6-0.94,2.92-2.32c0.05-0.22,0.07-0.44,0.08-0.66
	c0-0.01,0-0.01,0-0.02V26.02z M20.01,33.62c-0.12,0.54-0.66,0.87-1.2,0.75c-0.54-0.12-0.87-0.66-0.75-1.2
	c0.06-0.26,0.22-0.48,0.44-0.62c0.16-0.1,0.34-0.15,0.53-0.15c0.08,0,0.15,0.01,0.23,0.03C19.8,32.55,20.13,33.09,20.01,33.62z
	 M9.25,38.15c-0.12,0.54-0.66,0.87-1.2,0.75c-0.54-0.12-0.87-0.66-0.75-1.2c0.06-0.26,0.22-0.48,0.44-0.62
	c0.16-0.1,0.34-0.15,0.53-0.15c0.08,0,0.15,0.01,0.23,0.03C9.04,37.08,9.38,37.62,9.25,38.15z M87.71,85.82c0-0.03,0-0.06-0.01-0.09
	c-0.01-0.03-0.02-0.06-0.03-0.09c-0.01-0.03-0.02-0.07-0.03-0.1c-0.01-0.03-0.03-0.06-0.05-0.09c-0.01-0.03-0.03-0.06-0.04-0.08
	c-0.07-0.11-0.17-0.21-0.28-0.28c-0.06-0.04-0.12-0.07-0.18-0.09l-8.8-3.58c-0.06-0.03-0.13-0.04-0.19-0.06
	c-0.02,0-0.05,0-0.07-0.01c-0.04,0-0.08-0.01-0.12-0.01c-0.03,0-0.06,0.01-0.08,0.01c-0.04,0-0.07,0-0.11,0.01
	c-0.03,0.01-0.05,0.02-0.07,0.02c-0.04,0.01-0.07,0.02-0.11,0.03c-0.03,0.01-0.05,0.03-0.08,0.04c-0.03,0.02-0.06,0.03-0.09,0.05
	c-0.06,0.04-0.11,0.08-0.16,0.13l-5.43,5.43c-0.01-0.01-0.01-0.02-0.02-0.03c-0.77-1.23-2.39-1.61-3.63-0.84
	c-1.23,0.77-1.61,2.39-0.84,3.63c0.5,0.8,1.36,1.24,2.24,1.24c0.48,0,0.96-0.13,1.39-0.4c0.17-0.1,0.32-0.23,0.46-0.36
	c0,0,0.01-0.01,0.01-0.01l6.77-6.77l6.79,2.77l-4.37,4.37c-0.01-0.01-0.01-0.02-0.02-0.03c-0.77-1.23-2.39-1.61-3.63-0.84
	c-1.23,0.77-1.61,2.39-0.84,3.63c0.5,0.8,1.36,1.24,2.24,1.24c0.48,0,0.96-0.13,1.39-0.4c0.17-0.1,0.32-0.23,0.46-0.36
	c0,0,0.01-0.01,0.01-0.01l7.24-7.24c0.01-0.01,0.01-0.01,0.02-0.02c0.03-0.03,0.06-0.07,0.09-0.11c0.01-0.01,0.02-0.03,0.03-0.04
	c0.03-0.05,0.06-0.1,0.08-0.15c0.03-0.06,0.05-0.13,0.06-0.2c0.01-0.03,0.01-0.06,0.01-0.09c0-0.03,0.01-0.07,0.01-0.1
	C87.72,85.89,87.72,85.86,87.71,85.82z M68.99,88.77c-0.18-0.29-0.09-0.68,0.2-0.86c0.1-0.06,0.22-0.09,0.33-0.09
	c0.21,0,0.41,0.1,0.53,0.29c0.09,0.14,0.12,0.31,0.08,0.47c-0.04,0.16-0.14,0.3-0.28,0.39c0,0,0,0,0,0
	C69.56,89.15,69.17,89.06,68.99,88.77z M77.8,92.35c-0.18-0.29-0.09-0.68,0.2-0.86c0.1-0.06,0.22-0.09,0.33-0.09
	c0.21,0,0.41,0.1,0.53,0.29c0.09,0.14,0.12,0.31,0.08,0.47c-0.04,0.16-0.14,0.3-0.28,0.39c0,0,0,0,0,0
	C78.37,92.73,77.98,92.64,77.8,92.35z M94.26,56.19C94.14,56,94,55.83,93.85,55.67c0,0,0-0.01-0.01-0.01l-6.29-6.29l2.17-0.83
	c0.52-0.2,0.78-0.78,0.58-1.29c-0.2-0.52-0.78-0.78-1.29-0.58l-3.61,1.38c0,0-0.01,0-0.01,0c-0.04,0.01-0.07,0.03-0.11,0.05
	c-0.02,0.01-0.05,0.02-0.07,0.04c-0.02,0.01-0.04,0.03-0.06,0.05c-0.03,0.03-0.07,0.05-0.1,0.08c0,0,0,0-0.01,0.01
	c-0.02,0.02-0.03,0.03-0.04,0.05c-0.03,0.03-0.05,0.06-0.08,0.09c-0.02,0.03-0.03,0.06-0.05,0.08c-0.02,0.03-0.03,0.06-0.05,0.09
	c-0.01,0.03-0.02,0.06-0.03,0.09c-0.01,0.03-0.02,0.06-0.03,0.09c-0.01,0.03-0.01,0.06-0.01,0.09c0,0.03-0.01,0.07-0.01,0.1
	c0,0.03,0,0.06,0.01,0.1c0,0.03,0,0.06,0.01,0.1c0.01,0.04,0.02,0.08,0.03,0.12c0.01,0.02,0.01,0.04,0.02,0.06c0,0,0,0.01,0,0.01
	c0.01,0.02,0.01,0.03,0.02,0.05c0.02,0.04,0.04,0.08,0.06,0.12c0.01,0.02,0.02,0.03,0.03,0.05c0.03,0.04,0.06,0.07,0.09,0.11
	c0.01,0.01,0.01,0.02,0.02,0.02l5.38,5.38c-0.1,0.05-0.2,0.1-0.29,0.16c-0.68,0.42-1.15,1.09-1.34,1.87
	c-0.18,0.78-0.05,1.59,0.38,2.27c0.57,0.91,1.55,1.41,2.55,1.41c0.54,0,1.09-0.15,1.58-0.45C94.71,59.45,95.14,57.6,94.26,56.19z
	 M92.25,58.63c-0.47,0.29-1.08,0.15-1.37-0.32c-0.14-0.23-0.19-0.49-0.13-0.75c0.06-0.26,0.22-0.48,0.44-0.62
	c0.16-0.1,0.35-0.15,0.53-0.15c0.25,0,0.49,0.09,0.68,0.27l0.01,0.01c0.06,0.06,0.11,0.12,0.16,0.19
	C92.85,57.72,92.71,58.34,92.25,58.63z M30.12,12.9l5.12,2.45c0.14,0.07,0.29,0.1,0.43,0.1c0.37,0,0.73-0.21,0.9-0.57l2.45-5.12
	c0.34-0.72,0.39-1.52,0.12-2.27c-0.26-0.75-0.8-1.35-1.52-1.69c-0.72-0.34-1.52-0.39-2.27-0.12c-0.75,0.26-1.35,0.8-1.7,1.52
	l-0.32,0.66l-0.66-0.32c-0.72-0.34-1.52-0.39-2.27-0.12c-0.75,0.26-1.35,0.8-1.7,1.52c-0.34,0.72-0.39,1.52-0.12,2.27
	C28.86,11.95,29.4,12.55,30.12,12.9z M30.53,9.8c0.11-0.23,0.31-0.41,0.55-0.49c0.24-0.09,0.51-0.07,0.74,0.04l1.56,0.75
	c0.06,0.03,0.13,0.05,0.19,0.07c0.02,0.01,0.05,0.01,0.07,0.01c0.04,0.01,0.08,0.02,0.13,0.02c0.04,0,0.08,0,0.13-0.01
	c0.02,0,0.05,0,0.07,0c0.05-0.01,0.09-0.02,0.14-0.03c0.02,0,0.03-0.01,0.05-0.01c0.04-0.01,0.08-0.03,0.12-0.05
	c0.02-0.01,0.04-0.02,0.06-0.03c0.03-0.02,0.05-0.04,0.07-0.05c0.03-0.02,0.06-0.04,0.08-0.06c0.01-0.01,0.02-0.02,0.03-0.03
	c0.04-0.03,0.07-0.07,0.1-0.11c0-0.01,0.01-0.01,0.01-0.02c0.03-0.05,0.07-0.1,0.09-0.15c0,0,0,0,0,0l0.75-1.56
	c0.11-0.23,0.31-0.41,0.55-0.49c0.24-0.09,0.51-0.07,0.74,0.04c0.23,0.11,0.41,0.31,0.49,0.55c0.09,0.24,0.07,0.51-0.04,0.74
	l-2.02,4.21l-4.21-2.02c-0.23-0.11-0.41-0.31-0.5-0.55C30.4,10.29,30.42,10.03,30.53,9.8z"/>
</svg>
