<?xml version="1.0" encoding="utf-8"?>
<!-- Generator: Adobe Illustrator 28.1.0, SVG Export Plug-In . SVG Version: 6.00 Build 0)  -->
<svg version="1.1" id="Layer_1" xmlns="http://www.w3.org/2000/svg" xmlns:xlink="http://www.w3.org/1999/xlink" x="0px" y="0px"
	 viewBox="0 0 100 100" style="enable-background:new 0 0 100 100;" xml:space="preserve">
<path d="M96.3,1.7H84.72c-1.05,0-1.96,0.83-2.07,1.88C82.4,6.16,80.26,8.1,77.67,8.1c-2.59,0-4.73-1.94-4.98-4.5
	c-0.1-1.06-1.02-1.89-2.08-1.89H59.02c-1.13,0-2.06,0.91-2.09,2.04c-0.18,0.01-0.37,0.02-0.55,0.04l-51.72,6
	C4.49,9.8,4.32,9.82,4.16,9.85c-1.46,0.26-2.55,1.56-2.55,3.06c0,0.07,0.01,0.14,0.02,0.21v81.94c0,1.78,1.45,3.23,3.23,3.23h58.82
	c3.44,0,6.31-2.52,6.85-5.82h0.08c1.09,0,1.98-0.81,2.08-1.88c0.25-2.57,2.4-4.51,4.98-4.51c2.54,0,4.72,1.97,4.98,4.49
	c0.08,1.05,0.99,1.9,2.07,1.9H96.3c1.15,0,2.09-0.94,2.09-2.09V3.79C98.39,2.64,97.46,1.7,96.3,1.7z M56.71,6.52
	c0.08-0.01,0.15-0.01,0.23-0.02v3.27H28.7L56.71,6.52z M63.68,95.54H4.85c-0.25,0-0.47-0.21-0.47-0.47V13.01
	c0-0.21,0.14-0.38,0.33-0.44l0.19-0.02H58.3c0.01,0,0.01,0,0.02,0c0.01,0,0.01,0,0.02,0h5.34c2.3,0,4.18,1.87,4.18,4.18v33.44
	c0,0.01,0,0.02,0,0.03v40.91c0,0,0,0.01,0,0.01c0,0,0,0.01,0,0.01v0.24C67.86,93.66,65.98,95.54,63.68,95.54z M82.8,25.48
	c-0.28,0.4-0.31,0.89-0.14,1.31l6.66,16.6c0.22,0.56,0.15,1.18-0.19,1.68l-1.06,1.54L77.98,35.46c0,0-0.01-0.01-0.01-0.01
	c-0.02-0.02-0.04-0.04-0.06-0.06c-0.02-0.01-0.03-0.03-0.05-0.04c-0.02-0.01-0.03-0.03-0.05-0.04c-0.02-0.02-0.04-0.03-0.07-0.05
	c0,0-0.01-0.01-0.01-0.01c-0.01-0.01-0.02-0.01-0.03-0.02c-0.03-0.02-0.05-0.03-0.08-0.05c-0.02-0.01-0.03-0.02-0.05-0.02
	c-0.02-0.01-0.05-0.02-0.07-0.03c-0.02-0.01-0.04-0.02-0.06-0.02c-0.02-0.01-0.04-0.02-0.06-0.02c-0.02-0.01-0.05-0.01-0.07-0.02
	c-0.02-0.01-0.04-0.01-0.06-0.01c-0.03-0.01-0.05-0.01-0.08-0.02c-0.02,0-0.04-0.01-0.05-0.01c-0.03,0-0.05-0.01-0.08-0.01
	c-0.02,0-0.04,0-0.05,0c-0.03,0-0.05,0-0.07,0c-0.02,0-0.04,0-0.06,0c-0.02,0-0.05,0-0.07,0.01c-0.02,0-0.04,0.01-0.07,0.01
	c-0.02,0-0.04,0.01-0.06,0.01c-0.02,0-0.05,0.01-0.07,0.02c-0.02,0.01-0.04,0.01-0.06,0.02c-0.02,0.01-0.05,0.01-0.07,0.02
	c-0.02,0.01-0.04,0.02-0.06,0.02c-0.02,0.01-0.04,0.02-0.06,0.03c-0.02,0.01-0.04,0.02-0.06,0.03c-0.02,0.01-0.04,0.02-0.05,0.03
	c-0.02,0.01-0.05,0.03-0.07,0.04c-0.01,0.01-0.03,0.02-0.04,0.03c-0.02,0.02-0.05,0.04-0.07,0.06c-0.01,0.01-0.02,0.01-0.03,0.02
	c0,0-0.01,0.01-0.01,0.01c-0.02,0.02-0.04,0.04-0.06,0.06c-0.01,0.02-0.03,0.03-0.04,0.05c-0.01,0.02-0.03,0.03-0.04,0.05
	c-0.02,0.02-0.03,0.04-0.05,0.07c0,0-0.01,0.01-0.01,0.01l-4.55,6.6c-0.01,0.01-0.01,0.02-0.02,0.03c-0.01,0.02-0.02,0.03-0.03,0.05
	c-0.01,0.02-0.03,0.05-0.04,0.07c-0.01,0.01-0.01,0.03-0.02,0.04c-0.01,0.03-0.02,0.05-0.04,0.08c0,0.01-0.01,0.02-0.01,0.04
	c-0.01,0.03-0.02,0.06-0.03,0.09c0,0.01-0.01,0.02-0.01,0.04c-0.01,0.03-0.01,0.06-0.02,0.09c0,0.01,0,0.03-0.01,0.04
	c0,0.03-0.01,0.06-0.01,0.09c0,0.02,0,0.03,0,0.05c0,0.03,0,0.06,0,0.08c0,0.02,0,0.04,0,0.05c0,0.03,0,0.05,0.01,0.08
	c0,0.02,0,0.03,0.01,0.05c0,0.03,0.01,0.06,0.02,0.09c0,0.01,0.01,0.03,0.01,0.04c0.01,0.03,0.02,0.06,0.03,0.09
	c0,0.01,0,0.01,0.01,0.02l2.32,6.76c0.07,0.21,0.04,0.45-0.09,0.64l-1.04,1.51l-1.68-2.57v-13.7c0.23-0.36,0.47-0.73,0.72-1.1
	L85.3,14.71c0.31-0.45,0.77-0.75,1.3-0.84c0.55-0.1,1.1,0.02,1.55,0.35c0.89,0.64,1.09,1.92,0.44,2.85L82.8,25.48z M85.32,89.72
	c-0.65-3.68-3.84-6.39-7.65-6.39c-3.12,0-5.82,1.82-7.05,4.5V54.78c0.41,0.47,1,0.74,1.64,0.75c0.01,0,0.02,0,0.03,0
	c0.73,0,1.42-0.36,1.84-0.97l1.49-2.17c0.62-0.9,0.78-2.06,0.43-3.1l-2.09-6.1l3.16-4.59l9,9.95c0.51,0.56,1.22,0.88,1.97,0.88
	c0.06,0,0.12,0,0.18-0.01c0.82-0.05,1.55-0.47,2.02-1.15l1.13-1.65c0.87-1.26,1.04-2.86,0.48-4.27l-6.39-15.93l5.37-7.8
	c1.49-2.16,1-5.15-1.1-6.66c-1.07-0.77-2.37-1.06-3.66-0.82c-1.26,0.23-2.35,0.94-3.08,1.99l-12.4,18.01V16.72
	c0-3.83-3.11-6.94-6.94-6.94H59.7V4.46h10.33c0.66,3.68,3.84,6.39,7.65,6.39c3.81,0,7-2.71,7.65-6.39h10.31v53.98h-2.48
	c-0.76,0-1.38,0.62-1.38,1.38c0,0.76,0.62,1.38,1.38,1.38h2.48v28.51H85.32z M89.66,59.82c0,0.76-0.62,1.38-1.38,1.38h-3.84
	c-0.76,0-1.38-0.62-1.38-1.38c0-0.76,0.62-1.38,1.38-1.38h3.84C89.04,58.44,89.66,59.06,89.66,59.82z M79.57,61.21h-3.84
	c-0.76,0-1.38-0.62-1.38-1.38c0-0.76,0.62-1.38,1.38-1.38h3.84c0.76,0,1.38,0.62,1.38,1.38C80.95,60.59,80.33,61.21,79.57,61.21z
	 M93.06,65.97v14.31c0,0.76-0.62,1.38-1.38,1.38c-0.76,0-1.38-0.62-1.38-1.38V65.97c0-0.76,0.62-1.38,1.38-1.38
	C92.44,64.59,93.06,65.21,93.06,65.97z M87.46,65.97v14.31c0,0.76-0.62,1.38-1.38,1.38s-1.38-0.62-1.38-1.38V65.97
	c0-0.76,0.62-1.38,1.38-1.38S87.46,65.21,87.46,65.97z M81.83,65.97v14.31c0,0.76-0.62,1.38-1.38,1.38s-1.38-0.62-1.38-1.38V65.97
	c0-0.76,0.62-1.38,1.38-1.38S81.83,65.21,81.83,65.97z M76.22,71.69v8.59c0,0.76-0.62,1.38-1.38,1.38s-1.38-0.62-1.38-1.38v-8.59
	c0-0.76,0.62-1.38,1.38-1.38S76.22,70.92,76.22,71.69z M36.11,22.38c-11.91,0-21.59,9.69-21.59,21.59
	c0,11.91,9.69,21.59,21.59,21.59S57.7,55.87,57.7,43.97C57.7,32.06,48.02,22.38,36.11,22.38z M52.57,34.83h-7.78
	c-0.72-3.67-1.87-6.74-3.32-8.91C46.23,27.33,50.2,30.57,52.57,34.83z M36.11,62.8c-1.52,0-3.19-1.89-4.47-5.05
	c-0.56-1.39-1.02-2.96-1.38-4.65h11.7c-0.36,1.7-0.82,3.26-1.38,4.65C39.31,60.91,37.64,62.8,36.11,62.8z M29.79,50.33
	c-0.28-2.02-0.42-4.16-0.42-6.36c0-2.21,0.15-4.36,0.42-6.38h12.65c0.28,2.02,0.42,4.17,0.42,6.38c0,2.2-0.15,4.34-0.42,6.36H29.79z
	 M17.28,43.97c0-2.24,0.39-4.39,1.11-6.38h8.6c-0.25,2-0.39,4.14-0.39,6.38c0,2.23,0.14,4.36,0.39,6.36h-8.6
	C17.67,48.34,17.28,46.2,17.28,43.97z M36.11,25.14c1.52,0,3.19,1.89,4.47,5.05c0.56,1.38,1.02,2.95,1.38,4.64H30.27
	c0.36-1.69,0.82-3.25,1.38-4.64C32.92,27.03,34.59,25.14,36.11,25.14z M45.23,37.59h8.6c0.72,1.99,1.11,4.14,1.11,6.38
	c0,2.23-0.39,4.37-1.11,6.36h-8.6c0.25-2,0.39-4.13,0.39-6.36C45.62,41.73,45.49,39.59,45.23,37.59z M30.75,25.92
	c-1.45,2.17-2.6,5.24-3.32,8.91h-7.78C22.03,30.57,26,27.33,30.75,25.92z M19.64,53.09h7.79c0.72,3.68,1.87,6.75,3.32,8.93
	C25.99,60.6,22.02,57.35,19.64,53.09z M41.47,62.02c1.45-2.17,2.6-5.25,3.32-8.93h7.79C50.21,57.35,46.23,60.6,41.47,62.02z
	 M56.81,73.8c0,0.76-0.62,1.38-1.38,1.38H16.78c-0.76,0-1.38-0.62-1.38-1.38s0.62-1.38,1.38-1.38h38.65
	C56.19,72.42,56.81,73.04,56.81,73.8z M56.81,80.05c0,0.76-0.62,1.38-1.38,1.38H16.78c-0.76,0-1.38-0.62-1.38-1.38
	s0.62-1.38,1.38-1.38h38.65C56.19,78.67,56.81,79.29,56.81,80.05z M56.81,86.29c0,0.76-0.62,1.38-1.38,1.38H16.78
	c-0.76,0-1.38-0.62-1.38-1.38c0-0.76,0.62-1.38,1.38-1.38h38.65C56.19,84.91,56.81,85.53,56.81,86.29z"/>
</svg>
