<?xml version="1.0" encoding="utf-8"?>
<!-- Generator: Adobe Illustrator 28.1.0, SVG Export Plug-In . SVG Version: 6.00 Build 0)  -->
<svg version="1.1" id="Layer_1" xmlns="http://www.w3.org/2000/svg" xmlns:xlink="http://www.w3.org/1999/xlink" x="0px" y="0px"
	 viewBox="0 0 100 100" style="enable-background:new 0 0 100 100;" xml:space="preserve">
<path d="M96.46,65.2c1.08-0.11,1.92-1.04,1.92-2.11V50.72c0-1.18-0.96-2.14-2.14-2.14h-9.17l10.17-6.48
	c0.96-0.62,1.25-1.9,0.63-2.87l-6.13-9.62c-0.57-0.89-1.75-1.22-2.69-0.74c-2.26,1.15-4.99,0.4-6.36-1.75
	c-1.36-2.14-0.89-4.93,1.11-6.5c0.84-0.66,1.04-1.84,0.47-2.74l-6.13-9.62c-0.62-0.96-1.9-1.25-2.87-0.63L11.01,48.58H3.75
	c-1.18,0-2.14,0.96-2.14,2.14v12.37c0,1.1,0.87,2.04,1.95,2.11c2.78,0.29,4.88,2.61,4.88,5.41c0,2.81-2.11,5.14-4.9,5.42
	c-1.1,0.11-1.92,1.03-1.92,2.13v12.37c0,1.18,0.96,2.14,2.14,2.14h32.43c0.07,0.01,0.14,0.02,0.22,0.02s0.15-0.01,0.22-0.02h59.63
	c1.18,0,2.14-0.96,2.14-2.14V78.16c0-1.09-0.85-2.02-1.93-2.13c-2.8-0.28-4.9-2.61-4.9-5.42C91.56,67.8,93.67,65.47,96.46,65.2z
	 M29.07,40.35l1.3,2.04c0.26,0.41,0.71,0.64,1.17,0.64c0.25,0,0.51-0.07,0.74-0.22c0.64-0.41,0.83-1.26,0.42-1.91l-1.3-2.04
	l44.8-28.54l5.43,8.53c-2.71,2.5-3.27,6.58-1.25,9.75c2.02,3.17,5.96,4.39,9.37,2.99l5.44,8.54l-13.25,8.44H65.84
	c0.14-0.3,0.27-0.59,0.39-0.89l9.45-22.32c0.49-1.16,0.5-2.45,0.03-3.62c-0.49-1.2-1.42-2.13-2.63-2.62
	c-2.38-0.95-5.13,0.23-6.15,2.62l-3.63,8.58l-16.6,3.11c-1.49,0.28-2.72,1.28-3.31,2.67l-0.77,1.81c-0.32,0.75-0.27,1.59,0.12,2.3
	c0.39,0.71,1.07,1.2,1.88,1.34l13,2.21l-2.04,4.81H37.49c-0.03-0.15-0.09-0.3-0.18-0.43l-2.03-3.19c-0.41-0.64-1.26-0.83-1.91-0.42
	c-0.64,0.41-0.83,1.26-0.42,1.91l1.36,2.14H16.15L29.07,40.35z M58.58,48.58l2.26-5.34c0.01-0.01,0.01-0.03,0.02-0.04
	c0.01-0.01,0.01-0.03,0.02-0.04c0.02-0.07,0.04-0.14,0.06-0.21c0,0,0-0.01,0-0.01c0-0.01,0-0.02,0-0.04c0-0.03,0.01-0.06,0.01-0.09
	c0-0.02,0-0.04,0-0.06c0-0.03,0-0.05,0-0.08c0-0.02,0-0.04,0-0.06c0-0.02,0-0.04-0.01-0.07c0-0.02-0.01-0.05-0.01-0.07
	c0-0.02-0.01-0.04-0.01-0.06c-0.01-0.02-0.01-0.05-0.02-0.07c0-0.02-0.01-0.04-0.02-0.05c-0.01-0.02-0.02-0.05-0.02-0.07
	c-0.01-0.02-0.01-0.04-0.02-0.06c-0.01-0.02-0.02-0.04-0.03-0.06c-0.01-0.02-0.02-0.04-0.03-0.06c-0.01-0.02-0.02-0.04-0.03-0.06
	c-0.01-0.02-0.03-0.04-0.04-0.06c-0.01-0.02-0.02-0.03-0.03-0.05c-0.02-0.02-0.03-0.04-0.05-0.06c-0.01-0.01-0.02-0.03-0.04-0.04
	c-0.02-0.02-0.03-0.04-0.05-0.06c-0.01-0.01-0.03-0.03-0.04-0.04c-0.02-0.02-0.04-0.03-0.05-0.05c-0.02-0.01-0.04-0.03-0.05-0.04
	c-0.02-0.01-0.03-0.02-0.05-0.04c-0.02-0.01-0.05-0.03-0.07-0.04c-0.02-0.01-0.03-0.02-0.05-0.03c-0.03-0.01-0.05-0.03-0.08-0.04
	c-0.01,0-0.02-0.01-0.03-0.02c0,0-0.01,0-0.01-0.01c-0.03-0.01-0.05-0.02-0.08-0.03c-0.02-0.01-0.04-0.01-0.06-0.02
	c-0.02-0.01-0.04-0.01-0.06-0.02c-0.03-0.01-0.05-0.01-0.08-0.02c-0.01,0-0.01,0-0.02,0l-14.57-2.47l0.71-1.67
	c0.23-0.54,0.71-0.92,1.28-1.03l17.33-3.25c0,0,0.01,0,0.01,0c0,0,0.01,0,0.01,0c0.22-0.04,0.41-0.14,0.58-0.26
	c0.01,0,0.01-0.01,0.02-0.01c0.02-0.02,0.04-0.04,0.07-0.06c0.01-0.01,0.02-0.02,0.04-0.03c0.02-0.02,0.03-0.03,0.04-0.05
	c0.02-0.02,0.03-0.03,0.05-0.05c0.01-0.01,0.02-0.03,0.03-0.04c0.02-0.02,0.04-0.05,0.05-0.07c0.03-0.04,0.05-0.07,0.07-0.11
	c0-0.01,0.01-0.02,0.01-0.02c0.02-0.03,0.03-0.07,0.05-0.1c0,0,0,0,0,0l3.92-9.26c0.43-1.02,1.59-1.52,2.58-1.13
	c0.5,0.2,0.9,0.59,1.1,1.09c0.2,0.49,0.19,1.02-0.01,1.51L63.7,46.61c-0.28,0.66-0.59,1.32-0.91,1.97H58.58z M95.63,78.71v11.2
	H37.78v-2.71c0-0.76-0.62-1.38-1.38-1.38c-0.76,0-1.38,0.62-1.38,1.38v2.71H4.37v-11.2c3.93-0.66,6.83-4.04,6.83-8.09
	c0-4.05-2.9-7.43-6.83-8.09V51.34h30.64v2.74c0,0.76,0.62,1.38,1.38,1.38c0.76,0,1.38-0.62,1.38-1.38v-2.74h18.55
	c0.05,0.01,0.1,0.01,0.15,0.01c0.04,0,0.09-0.01,0.13-0.01h7c0,0,0,0,0,0c0,0,0,0,0,0h18.72c0,0,0,0,0,0c0,0,0,0,0,0h13.28v11.19
	c-3.93,0.66-6.83,4.04-6.83,8.09C88.8,74.66,91.7,78.05,95.63,78.71z M37.78,59.29v4.1c0,0.76-0.62,1.38-1.38,1.38
	c-0.76,0-1.38-0.62-1.38-1.38v-4.1c0-0.76,0.62-1.38,1.38-1.38C37.16,57.9,37.78,58.52,37.78,59.29z M37.78,68.59v4.1
	c0,0.76-0.62,1.38-1.38,1.38c-0.76,0-1.38-0.62-1.38-1.38v-4.1c0-0.76,0.62-1.38,1.38-1.38C37.16,67.21,37.78,67.83,37.78,68.59z
	 M37.78,77.9V82c0,0.76-0.62,1.38-1.38,1.38c-0.76,0-1.38-0.62-1.38-1.38v-4.1c0-0.76,0.62-1.38,1.38-1.38
	C37.16,76.52,37.78,77.14,37.78,77.9z M31.22,55.65c0,0.76-0.62,1.38-1.38,1.38H14.55c-0.76,0-1.38-0.62-1.38-1.38
	c0-0.76,0.62-1.38,1.38-1.38h15.28C30.6,54.27,31.22,54.89,31.22,55.65z M31.22,61.64c0,0.76-0.62,1.38-1.38,1.38H14.55
	c-0.76,0-1.38-0.62-1.38-1.38c0-0.76,0.62-1.38,1.38-1.38h15.28C30.6,60.26,31.22,60.88,31.22,61.64z M31.22,67.65
	c0,0.76-0.62,1.38-1.38,1.38H14.55c-0.76,0-1.38-0.62-1.38-1.38c0-0.76,0.62-1.38,1.38-1.38h15.28
	C30.6,66.27,31.22,66.89,31.22,67.65z M13.17,73.64c0-0.76,0.62-1.38,1.38-1.38h9.18c0.76,0,1.38,0.62,1.38,1.38
	c0,0.76-0.62,1.38-1.38,1.38h-9.18C13.79,75.02,13.17,74.4,13.17,73.64z M31.22,79.63c0,0.76-0.62,1.38-1.38,1.38H24.2
	c-0.76,0-1.38-0.62-1.38-1.38c0-0.76,0.62-1.38,1.38-1.38h5.64C30.6,78.25,31.22,78.87,31.22,79.63z M13.17,79.63
	c0-0.76,0.62-1.38,1.38-1.38h4.92c0.76,0,1.38,0.62,1.38,1.38c0,0.76-0.62,1.38-1.38,1.38h-4.92
	C13.79,81.01,13.17,80.39,13.17,79.63z M31.22,85.62c0,0.76-0.62,1.38-1.38,1.38H14.55c-0.76,0-1.38-0.62-1.38-1.38
	c0-0.76,0.62-1.38,1.38-1.38h15.28C30.6,84.24,31.22,84.85,31.22,85.62z M80.45,56.6l-8.37,5.77l-17.06-6.85
	c-1.48-0.6-3.16-0.41-4.48,0.5l-1.76,1.21c-0.7,0.48-1.13,1.24-1.18,2.08c-0.06,0.84,0.27,1.65,0.9,2.22l10.71,9.69l-5.04,3.47
	l-6.56-2.25c-1.08-0.37-2.29-0.2-3.23,0.44l-2.31,1.59c-0.63,0.43-1,1.15-0.99,1.91c0.01,0.76,0.4,1.47,1.04,1.89l3.1,2.02
	c-0.56,0.76-0.82,1.73-0.67,2.69c0.14,0.95,0.65,1.79,1.43,2.37c0.63,0.46,1.37,0.7,2.13,0.7c0.18,0,0.37-0.01,0.55-0.04
	c2.84-0.43,5.64-1.18,8.32-2.24c2.67-1.06,5.23-2.42,7.6-4.05l21.65-14.91c1.1-0.76,1.85-1.9,2.09-3.22
	c0.25-1.36-0.06-2.72-0.86-3.84C85.85,55.56,82.72,55.04,80.45,56.6z M85.58,61.1c-0.11,0.59-0.44,1.11-0.94,1.45L63,77.46
	c-2.2,1.51-4.57,2.78-7.05,3.76c-2.48,0.98-5.08,1.68-7.71,2.08c-0.22,0.03-0.45-0.02-0.63-0.16c-0.18-0.13-0.3-0.33-0.34-0.56
	c-0.05-0.32,0.09-0.64,0.36-0.83c0.09-0.07,0.2-0.11,0.32-0.13c0.01,0,0.03-0.01,0.04-0.01c0.02,0,0.04-0.01,0.06-0.01
	c0.03-0.01,0.07-0.02,0.1-0.03c0.02-0.01,0.03-0.01,0.05-0.02c0.04-0.02,0.09-0.04,0.13-0.06c0,0,0.01,0,0.01-0.01
	c0.05-0.02,0.09-0.05,0.13-0.08c0.01-0.01,0.02-0.02,0.04-0.03c0.03-0.02,0.06-0.05,0.09-0.07c0.01-0.01,0.03-0.02,0.04-0.04
	c0.03-0.03,0.06-0.05,0.08-0.08c0.01-0.01,0.02-0.02,0.03-0.03c0.03-0.04,0.07-0.08,0.1-0.13c0,0,0,0,0.01-0.01
	c0.01-0.01,0.01-0.03,0.02-0.04c0.01-0.02,0.03-0.05,0.04-0.07c0.01-0.02,0.02-0.04,0.03-0.06c0.01-0.02,0.02-0.04,0.03-0.07
	c0.01-0.02,0.02-0.04,0.02-0.06c0.01-0.02,0.02-0.04,0.02-0.06c0.01-0.02,0.01-0.04,0.02-0.07c0.01-0.02,0.01-0.04,0.02-0.07
	c0-0.02,0.01-0.04,0.01-0.06c0-0.02,0.01-0.05,0.01-0.07c0-0.02,0-0.04,0-0.07c0-0.02,0-0.05,0-0.07c0-0.02,0-0.05,0-0.07
	c0-0.02,0-0.04,0-0.06c0-0.03-0.01-0.05-0.01-0.08c0-0.02,0-0.03-0.01-0.05c0,0,0-0.01,0-0.01c-0.01-0.03-0.01-0.05-0.02-0.08
	c0-0.02-0.01-0.04-0.01-0.06c-0.01-0.02-0.02-0.04-0.02-0.07c-0.01-0.02-0.01-0.04-0.02-0.06c-0.01-0.02-0.02-0.04-0.02-0.05
	c-0.01-0.02-0.02-0.05-0.03-0.07c-0.01-0.02-0.02-0.03-0.03-0.05c-0.01-0.02-0.03-0.04-0.04-0.06c-0.02-0.02-0.03-0.04-0.05-0.07
	c-0.01-0.01-0.02-0.03-0.03-0.04c-0.02-0.02-0.04-0.04-0.05-0.06c-0.01-0.01-0.02-0.03-0.04-0.04c-0.02-0.02-0.03-0.03-0.05-0.05
	c-0.02-0.02-0.03-0.03-0.05-0.05c-0.01-0.01-0.03-0.02-0.05-0.03c-0.02-0.02-0.04-0.03-0.06-0.05c0,0-0.01,0-0.01-0.01l-4.22-2.75
	l1.73-1.19c0.22-0.15,0.51-0.19,0.76-0.1l7.22,2.47c0.03,0.01,0.06,0.02,0.1,0.03c0.01,0,0.02,0.01,0.03,0.01
	c0.05,0.01,0.1,0.02,0.15,0.03c0.01,0,0.01,0,0.02,0c0.05,0,0.09,0.01,0.14,0.01c0,0,0.01,0,0.01,0c0.01,0,0.01,0,0.02,0
	c0.05,0,0.11,0,0.16-0.01c0.01,0,0.02,0,0.03,0c0.06-0.01,0.12-0.02,0.17-0.04c0.01,0,0.03-0.01,0.04-0.01
	c0.05-0.02,0.1-0.04,0.15-0.06c0.01,0,0.01-0.01,0.02-0.01c0.06-0.03,0.11-0.06,0.16-0.1c0.01,0,0.01-0.01,0.02-0.01l7.05-4.86
	c0,0,0,0,0.01,0c0.02-0.01,0.04-0.03,0.06-0.05c0.02-0.02,0.04-0.03,0.06-0.05c0.01-0.01,0.03-0.02,0.04-0.04
	c0.02-0.02,0.05-0.04,0.07-0.07c0,0,0.01-0.01,0.01-0.01c0.01-0.01,0.01-0.02,0.02-0.03c0.02-0.02,0.04-0.05,0.06-0.07
	c0.01-0.01,0.02-0.03,0.03-0.04c0.02-0.02,0.03-0.04,0.04-0.07c0.01-0.02,0.02-0.04,0.03-0.05c0.01-0.02,0.02-0.04,0.03-0.06
	c0.01-0.02,0.02-0.04,0.03-0.06c0.01-0.02,0.02-0.04,0.02-0.06c0.01-0.02,0.02-0.05,0.02-0.07c0.01-0.02,0.01-0.04,0.02-0.06
	c0.01-0.02,0.01-0.05,0.02-0.07c0-0.02,0.01-0.04,0.01-0.06c0-0.02,0.01-0.05,0.01-0.07c0-0.02,0-0.04,0.01-0.07
	c0-0.02,0-0.04,0-0.06c0-0.02,0-0.05,0-0.07c0-0.02,0-0.04,0-0.06c0-0.03,0-0.05-0.01-0.08c0-0.02-0.01-0.04-0.01-0.06
	c0-0.03-0.01-0.05-0.01-0.07c0-0.02-0.01-0.04-0.01-0.06c-0.01-0.02-0.01-0.05-0.02-0.07c-0.01-0.02-0.02-0.04-0.02-0.06
	c-0.01-0.02-0.02-0.04-0.02-0.06c-0.01-0.02-0.02-0.05-0.04-0.07c-0.01-0.02-0.02-0.03-0.02-0.05c-0.01-0.03-0.03-0.05-0.05-0.08
	c-0.01-0.01-0.01-0.02-0.02-0.03c0,0-0.01-0.01-0.01-0.01c-0.02-0.02-0.03-0.04-0.05-0.07c-0.01-0.02-0.03-0.03-0.04-0.05
	c-0.01-0.02-0.03-0.03-0.04-0.05c-0.02-0.02-0.04-0.04-0.06-0.06c0,0-0.01-0.01-0.01-0.01L50.35,59.51l1.76-1.21
	c0.55-0.38,1.26-0.46,1.88-0.21l17.75,7.12c0,0,0,0,0,0c0.04,0.02,0.09,0.03,0.13,0.05c0,0,0,0,0,0c0.04,0.01,0.09,0.02,0.13,0.03
	c0.03,0.01,0.06,0.01,0.09,0.01c0.01,0,0.03,0,0.04,0.01c0.03,0,0.06,0,0.09,0c0.02,0,0.03,0,0.05,0c0.02,0,0.05,0,0.07,0
	c0.02,0,0.04,0,0.06,0c0.02,0,0.04-0.01,0.05-0.01c0.03,0,0.05-0.01,0.08-0.01c0.01,0,0.02-0.01,0.04-0.01
	c0.03-0.01,0.06-0.02,0.09-0.02c0.01,0,0.02-0.01,0.02-0.01c0.03-0.01,0.07-0.02,0.1-0.04c0.04-0.02,0.08-0.04,0.12-0.06
	c0,0,0.01,0,0.01-0.01c0.04-0.02,0.07-0.04,0.11-0.07c0,0,0,0,0,0l8.99-6.19c1.04-0.72,2.46-0.49,3.18,0.5
	C85.56,59.88,85.69,60.49,85.58,61.1z"/>
</svg>
